<svg width="512" height="512" viewBox="0 0 512 512" fill="none" xmlns="http://www.w3.org/2000/svg">
<path fill-rule="evenodd" clip-rule="evenodd" d="M465.455 183.291C465.455 184.887 464.16 186.182 462.564 186.182H418.909V142.527C418.909 140.931 417.615 139.636 416.018 139.636H372.364V183.291C372.364 184.887 373.658 186.182 375.255 186.182H418.909V322.927C418.909 324.524 417.615 325.818 416.018 325.818H375.255C373.658 325.818 372.364 327.113 372.364 328.709V369.473C372.364 371.069 371.069 372.364 369.473 372.364H328.709C327.113 372.364 325.818 373.658 325.818 375.255V416.018C325.818 417.615 324.524 418.909 322.927 418.909H186.182V375.255C186.182 373.658 184.887 372.364 183.291 372.364H139.636V416.018C139.636 417.615 140.931 418.909 142.527 418.909H186.182V462.564C186.182 464.16 184.887 465.455 183.291 465.455H49.4365C47.8398 465.455 46.5455 464.16 46.5455 462.564V328.709C46.5455 327.113 47.8398 325.818 49.4365 325.818H93.0909V369.473C93.0909 371.069 94.3853 372.364 95.9819 372.364H139.636V328.709C139.636 327.113 138.342 325.818 136.745 325.818H93.0909V189.073C93.0909 187.476 94.3853 186.182 95.9819 186.182H136.745C138.342 186.182 139.636 184.887 139.636 183.291V142.527C139.636 140.931 140.931 139.636 142.527 139.636H183.291C184.887 139.636 186.182 138.342 186.182 136.745V95.9819C186.182 94.3853 187.476 93.0909 189.073 93.0909H325.818V136.745C325.818 138.342 327.113 139.636 328.709 139.636H372.364V95.9819C372.364 94.3853 371.069 93.0909 369.473 93.0909H325.818V49.4365C325.818 47.8398 327.113 46.5455 328.709 46.5455H462.564C464.16 46.5455 465.455 47.8398 465.455 49.4365V183.291ZM186.182 322.927C186.182 324.524 187.476 325.818 189.073 325.818H322.927C324.524 325.818 325.818 324.524 325.818 322.927V189.073C325.818 187.476 324.524 186.182 322.927 186.182H189.073C187.476 186.182 186.182 187.476 186.182 189.073V322.927Z" fill="#FAFAFA"/>
<path d="M186.182 418.909H142.527C140.931 418.909 139.636 417.615 139.636 416.018V372.364H183.291C184.887 372.364 186.182 373.658 186.182 375.255V418.909Z" fill="#19191900"/>
<path d="M139.636 372.364H95.9819C94.3853 372.364 93.0909 371.069 93.0909 369.473V325.818H136.745C138.342 325.818 139.636 327.113 139.636 328.709V372.364Z" fill="#19191900"/>
<path d="M418.909 186.182H375.255C373.658 186.182 372.364 184.887 372.364 183.291V139.636H416.018C417.615 139.636 418.909 140.931 418.909 142.527V186.182Z" fill="#19191900"/>
<path d="M372.364 139.636H328.709C327.113 139.636 325.818 138.342 325.818 136.745V93.0909H369.473C371.069 93.0909 372.364 94.3853 372.364 95.9819V139.636Z" fill="#19191900"/>
<path d="M14.4551 0C6.47177 0 0 6.47177 0 14.4551V497.545C0 505.528 6.47177 512 14.4551 512H497.545C505.528 512 512 505.528 512 497.545V14.4551C512 6.47177 505.528 0 497.545 0H14.4551ZM49.4365 465.455C47.8398 465.455 46.5455 464.16 46.5455 462.564V328.709C46.5455 327.113 47.8398 325.818 49.4365 325.818H93.0909V189.073C93.0909 187.476 94.3853 186.182 95.9819 186.182H136.745C138.342 186.182 139.636 184.887 139.636 183.291V142.527C139.636 140.931 140.931 139.636 142.527 139.636H183.291C184.887 139.636 186.182 138.342 186.182 136.745V95.9819C186.182 94.3853 187.476 93.0909 189.073 93.0909H325.818V49.4365C325.818 47.8398 327.113 46.5455 328.709 46.5455H462.564C464.16 46.5455 465.455 47.8398 465.455 49.4365V183.291C465.455 184.887 464.16 186.182 462.564 186.182H418.909V322.927C418.909 324.524 417.615 325.818 416.018 325.818H375.255C373.658 325.818 372.364 327.113 372.364 328.709V369.473C372.364 371.069 371.069 372.364 369.473 372.364H328.709C327.113 372.364 325.818 373.658 325.818 375.255V416.018C325.818 417.615 324.524 418.909 322.927 418.909H186.182V462.564C186.182 464.16 184.887 465.455 183.291 465.455H49.4365Z" fill="#19191900"/>
<path d="M186.182 322.927C186.182 324.524 187.476 325.818 189.073 325.818H322.927C324.524 325.818 325.818 324.524 325.818 322.927V189.073C325.818 187.476 324.524 186.182 322.927 186.182H189.073C187.476 186.182 186.182 187.476 186.182 189.073V322.927Z" fill="#19191900"/>
</svg>
